<svg width="116" height="96" xmlns="http://www.w3.org/2000/svg" xmlns:xlink="http://www.w3.org/1999/xlink" xml:space="preserve" overflow="hidden"><g transform="translate(-573 -201)"><path d="M62.6177 53.72C66.9263 55.2661 71.003 57.0279 74.3784 59.7893 75.995 61.0502 76.9565 62.9732 76.9951 65.0231L78.7509 79.417C78.8927 80.5047 78.4145 81.5805 77.5121 82.2041 75.7917 83.3159 73.9419 84.2134 72.0038 84.8765L72.0038 86.985C74.3378 86.2355 76.5646 85.1862 78.6284 83.8633 80.154 82.822 80.9683 81.0142 80.7372 79.1816L78.9936 64.93C78.9298 62.3056 77.6953 59.8473 75.6284 58.2288 72.0006 55.2608 67.6932 53.4122 63.1628 51.7933L58.2407 49.7733C57.4887 49.467 56.9978 48.7349 57 47.9229L57 44.9753C60.7739 42.1517 62.9977 37.7157 63.002 33.0024L63.002 30.1036C63.5198 30.3172 64.0728 30.4329 64.6328 30.4448 65.1851 30.4448 65.6328 29.9971 65.6328 29.4448 65.6328 29.3374 65.6155 29.2308 65.5816 29.1289L64.5689 26.0889C64.1271 24.7013 63.7734 23.2872 63.51 21.855 62.5238 17.02 59.3435 12.9194 54.906 10.7612 54.1943 10.3903 53.334 10.4537 52.6843 10.9248L52.3825 10.4771C51.973 9.84405 51.325 9.40343 50.5857 9.2554 42.8451 7.8 35.3808 12.7139 32.8373 20.498 32.4015 21.8555 32.1788 23.2723 32.1773 24.698L32.168 26.1922C32.1609 27.5906 31.8727 28.9734 31.3203 30.2581L29.4579 34.606C29.2403 35.1136 29.4754 35.7015 29.983 35.9191 30.1075 35.9725 30.2415 36 30.3769 36 30.4548 36.0001 30.5325 35.9909 30.6083 35.9727 30.7755 35.9327 31.7268 35.7027 33.1851 35.2886 33.786 39.1495 35.8707 42.6231 38.9951 44.9695L38.9951 47.9229C38.9971 48.7348 38.5062 49.4667 37.7543 49.7729L32.799 51.8069C28.2828 53.4225 23.9913 55.2669 20.3876 58.2152 18.3121 59.8345 17.0711 62.2984 17.0053 64.93L15.2626 79.189C15.0342 81.0198 15.8491 82.8245 17.3735 83.8638 19.4391 85.1871 21.6677 86.2368 24.0035 86.9866L24.0035 84.8781C22.0634 84.2147 20.2116 83.3167 18.4894 82.2041 17.5883 81.5826 17.1096 80.5099 17.2487 79.4241L18.9962 65.1241 19.0035 65.0241C19.0439 62.9672 20.0117 61.0387 21.6368 59.7771 24.9976 57.0271 29.0699 55.2682 33.3768 53.7226L35.4568 52.9934C38.1623 54.8591 42.8903 56.0034 48.0002 56.0034 53.1081 56.0034 57.8357 54.8594 60.5412 52.9934ZM33.1586 31.0464C33.8167 29.5166 34.1602 27.87 34.1686 26.2046L34.1779 24.7109C34.1779 23.4918 34.3672 22.2801 34.7389 21.1191 36.7158 15.0664 41.999 11 47.8842 11 48.667 11.0014 49.4481 11.0754 50.2172 11.2212 50.4285 11.2739 50.6104 11.4078 50.7236 11.5938L51.6157 12.918C51.9242 13.3761 52.5456 13.4974 53.0037 13.1889 53.019 13.1786 53.0341 13.1678 53.0488 13.1567L53.8539 12.5479C53.886 12.5206 53.9303 12.5129 53.9697 12.5279 57.886 14.3891 60.6946 17.9889 61.5473 22.2403L61.5478 22.2403C61.827 23.7563 62.2023 25.2529 62.6713 26.7213L63.0805 27.9498C60.9648 26.7516 58.4741 23.6358 57.1405 21.5098 56.9673 21.2333 56.67 21.0587 56.3441 21.042 56.0176 21.0231 55.703 21.1672 55.5041 21.4268 50.5014 27.8584 37.143 32.0952 32.1044 33.5073ZM35.1286 34.7131C41.0096 32.9047 51.1029 29.1813 56.1956 23.6953 57.5318 25.6744 59.1513 27.4466 61.0023 28.9553L61.0023 33.0022C61.0065 40.178 55.1928 45.9985 48.0171 46.0027 41.4966 46.0066 35.9833 41.1771 35.1286 34.7129ZM48.0009 54.0024C44.4525 54.0898 40.9284 53.3943 37.6793 51.9653L38.5131 51.623C40.0166 51.0102 40.9982 49.5466 40.9946 47.923L40.9946 46.245C45.369 48.5831 50.6206 48.5887 55 46.26L55 47.9231C54.9965 49.5465 55.9778 51.01 57.481 51.6231L58.3177 51.9666C55.07 53.3946 51.5476 54.0897 48.0009 54.0024Z" transform="matrix(1.20833 0 0 1 573 201)"/><path d="M70.0038 65.54C69.9983 63.5794 68.4045 61.9945 66.4439 62 66.4406 62 66.4373 62 66.434 62L29.544 62C27.5898 62.0021 26.0061 63.5858 26.004 65.54L26.004 88.19 19.004 88.19 19.004 90.464C19.0171 92.4129 20.5949 93.989 22.5439 94L73.4677 94C75.4167 93.9869 76.9929 92.409 77.0038 90.46L77.0038 88.19 70.0038 88.19ZM75.0038 90.19 75.0038 90.4562C74.9986 91.3052 74.3128 91.9927 73.4638 92L22.5478 92C21.6988 91.9948 21.0112 91.309 21.0038 90.46L21.0038 90.19 28.0038 90.19 28.0038 65.54C28.0048 64.6899 28.6937 64.001 29.5438 64L66.4638 64C67.3139 64.001 68.0028 64.6899 68.0038 65.54L68.0038 90.19Z" transform="matrix(1.20833 0 0 1 573 201)"/><path d="M41.416 72.03 35.806 77.64 41.416 83.25 42.826 81.84 38.636 77.64 42.826 73.44 41.416 72.03Z" transform="matrix(1.20833 0 0 1 573 201)"/><path d="M53.146 73.44 57.336 77.64 53.146 81.84 54.556 83.25 60.166 77.64 54.556 72.03 53.146 73.44Z" transform="matrix(1.20833 0 0 1 573 201)"/><path d="M44.706 83.18 46.556 83.95 51.236 72.63 49.396 71.86 44.706 83.18Z" transform="matrix(1.20833 0 0 1 573 201)"/></g></svg>